<?xml version="1.0" encoding="UTF-8"?>
<!DOCTYPE svg PUBLIC "-//W3C//DTD SVG 1.1//EN" "http://www.w3.org/Graphics/SVG/1.1/DTD/svg11.dtd">
<svg xmlns="http://www.w3.org/2000/svg" version="1.1" width="500px" height="500px" style="shape-rendering:geometricPrecision; text-rendering:geometricPrecision; image-rendering:optimizeQuality; fill-rule:evenodd; clip-rule:evenodd" xmlns:xlink="http://www.w3.org/1999/xlink">
<g><path style="opacity:0.678" fill="#5f5f5f" d="M 303.5,76.5 C 291.817,76.3981 280.15,76.7314 268.5,77.5C 275.443,76.0308 282.609,75.3642 290,75.5C 294.68,75.5009 299.18,75.8342 303.5,76.5 Z"/></g>
<g><path style="opacity:0.999" fill="#0b0a08" d="M 303.5,76.5 C 320.992,77.065 337.659,81.065 353.5,88.5C 381.257,81.7953 400.757,91.462 412,117.5C 415.305,127.212 415.138,136.879 411.5,146.5C 426.209,182.047 428.376,218.381 418,255.5C 401.069,311.085 368.236,354.585 319.5,386C 277.162,413.418 231.162,422.752 181.5,414C 172.12,411.429 162.953,408.262 154,404.5C 128.673,411.332 109.673,403.332 97,380.5C 92.9489,369.357 92.4489,358.023 95.5,346.5C 78.4187,303.97 78.252,261.303 95,218.5C 118.369,161.463 157.869,119.63 213.5,93C 231.021,84.881 249.354,79.7143 268.5,77.5C 280.15,76.7314 291.817,76.3981 303.5,76.5 Z"/></g>
<g><path style="opacity:1" fill="#fbe92a" d="M 388.5,107.5 C 384.668,114.011 379.668,119.678 373.5,124.5C 380.521,132.188 387.854,139.521 395.5,146.5C 395.5,147.167 395.5,147.833 395.5,148.5C 390.449,211.184 368.283,266.851 329,315.5C 288.532,358.481 238.699,382.314 179.5,387C 170.167,387.667 160.833,387.667 151.5,387C 144.333,381.833 137.167,376.667 130,371.5C 126.387,376.421 122.554,381.088 118.5,385.5C 106.751,374.01 104.417,360.676 111.5,345.5C 94.9326,311.334 92.0992,276 103,239.5C 124.181,175.982 165.348,130.482 226.5,103C 258.559,89.8621 291.559,86.8621 325.5,94C 334.854,96.6176 343.854,100.118 352.5,104.5C 365.217,98.4485 377.217,99.4485 388.5,107.5 Z"/></g>
<g><path style="opacity:1" fill="#f0a83f" d="M 388.5,107.5 C 400.351,118.807 402.684,131.807 395.5,146.5C 387.854,139.521 380.521,132.188 373.5,124.5C 379.668,119.678 384.668,114.011 388.5,107.5 Z"/></g>
<g><path style="opacity:1" fill="#f2a940" d="M 395.5,148.5 C 407.023,169.605 411.856,192.272 410,216.5C 406.051,259.714 390.051,297.714 362,330.5C 328.773,369.204 286.939,393.037 236.5,402C 207.628,406.443 180.294,401.943 154.5,388.5C 146.94,392.31 138.94,393.477 130.5,392C 125.99,390.582 121.99,388.415 118.5,385.5C 122.554,381.088 126.387,376.421 130,371.5C 137.167,376.667 144.333,381.833 151.5,387C 160.833,387.667 170.167,387.667 179.5,387C 238.699,382.314 288.532,358.481 329,315.5C 368.283,266.851 390.449,211.184 395.5,148.5 Z"/></g>
</svg>
